<?xml version="1.0" standalone="no"?>
<!DOCTYPE svg PUBLIC "-//W3C//DTD SVG 20010904//EN"
 "http://www.w3.org/TR/2001/REC-SVG-20010904/DTD/svg10.dtd">
<svg version="1.0" xmlns="http://www.w3.org/2000/svg"
 width="512.000000pt" height="512.000000pt" viewBox="0 0 512.000000 512.000000"
 preserveAspectRatio="xMidYMid meet">

<g transform="translate(0.000000,512.000000) scale(0.100000,-0.100000)"
fill="#000000" stroke="none">
<path d="M243 5106 c-88 -28 -176 -107 -216 -194 l-22 -47 0 -2305 0 -2305 22
-47 c30 -66 105 -143 172 -175 l56 -28 1769 -3 c1587 -2 1776 -1 1824 13 130
38 216 134 241 270 7 35 11 195 11 394 l0 336 486 485 c279 279 494 501 506
524 29 57 34 132 13 197 -16 47 -38 74 -174 212 -180 183 -218 208 -316 208
-35 0 -80 -7 -101 -16 -26 -10 -103 -80 -226 -203 l-188 -187 0 1271 c0 875
-3 1289 -11 1329 -25 135 -110 231 -239 269 -48 14 -235 16 -1809 15 -1415 0
-1764 -3 -1798 -13z m3587 -178 c54 -28 80 -62 91 -119 10 -55 12 -1779 1
-1779 -4 0 -176 169 -382 376 -206 206 -395 387 -420 402 -38 23 -56 27 -120
27 -128 0 -118 10 -547 -526 l-376 -470 -186 184 c-211 209 -234 224 -344 215
-67 -6 -106 -22 -148 -60 -14 -13 -295 -361 -625 -773 l-599 -749 -3 1565 c-1
860 0 1579 3 1597 7 39 58 100 100 118 24 11 355 13 1770 14 l1741 0 44 -22z
m-348 -1705 l448 -448 0 -354 0 -355 -262 -263 -262 -263 -1553 0 -1553 0 581
728 c320 400 598 744 617 765 28 29 44 37 71 37 33 0 60 -24 418 -382 364
-364 384 -382 419 -382 46 0 84 40 84 86 0 27 -21 52 -146 179 l-146 147 362
453 c199 250 373 464 387 477 14 13 37 22 56 22 28 0 77 -46 479 -447z m1315
-895 c188 -187 187 -186 77 -298 l-79 -81 -185 186 -185 185 75 75 c68 68 78
75 114 75 38 0 47 -7 183 -142z m-499 -385 c-121 -122 -132 -135 -132 -169 0
-45 40 -84 86 -84 27 0 51 20 165 132 l133 132 63 -62 62 -62 -395 -395 -395
-395 -62 62 -63 62 160 161 c138 139 160 166 160 192 0 45 -9 62 -41 78 -55
29 -65 23 -236 -147 l-163 -163 -63 63 -62 62 395 395 395 395 62 -62 63 -63
-132 -132z m-1014 -600 c-4 -16 -15 -55 -24 -88 l-17 -60 -790 -5 c-634 -4
-793 -8 -806 -18 -22 -18 -30 -63 -17 -96 21 -57 11 -56 820 -56 612 0 740 -2
740 -13 0 -8 -7 -36 -15 -63 -8 -27 -15 -59 -15 -71 l0 -23 -360 0 -361 0 -24
-25 c-32 -31 -32 -75 -1 -112 l24 -28 452 -3 452 -3 281 77 c155 42 287 79
294 81 10 4 13 -46 13 -238 -1 -134 -5 -264 -9 -288 -11 -57 -37 -91 -91 -118
l-44 -23 -1738 0 c-1454 0 -1744 2 -1771 14 -39 16 -82 61 -96 99 -12 31 -16
1069 -4 1080 3 4 705 7 1560 7 l1553 0 -6 -27z m300 -242 l139 -139 -54 -15
c-129 -37 -331 -88 -334 -85 -6 6 97 378 104 378 4 0 69 -63 145 -139z"/>
<path d="M801 4674 c-83 -22 -150 -63 -221 -134 -105 -105 -150 -213 -150
-360 0 -139 49 -259 145 -355 204 -204 524 -206 725 -3 276 279 148 753 -231
853 -68 19 -198 18 -268 -1z m297 -194 c70 -37 120 -90 154 -166 32 -68 32
-198 1 -266 -30 -66 -105 -143 -172 -175 -76 -38 -200 -40 -275 -5 -75 34
-129 84 -166 153 -81 153 -36 342 106 440 68 46 116 59 209 56 68 -3 89 -8
143 -37z"/>
<path d="M452 1167 c-31 -33 -29 -87 4 -118 l26 -24 460 0 460 0 24 28 c31 37
31 81 -1 112 l-24 25 -464 0 -464 0 -21 -23z"/>
<path d="M455 825 c-42 -41 -31 -105 22 -133 33 -18 1658 -17 1693 1 54 27 63
94 20 137 -20 20 -37 20 -865 20 l-846 0 -24 -25z"/>
<path d="M455 485 c-25 -24 -32 -65 -19 -100 18 -45 19 -45 808 -45 l745 0 25
23 c40 34 43 77 11 115 l-27 32 -759 0 -760 0 -24 -25z"/>
</g>
</svg>
