<?xml version="1.0" standalone="no"?>
<!DOCTYPE svg PUBLIC "-//W3C//DTD SVG 20010904//EN"
 "http://www.w3.org/TR/2001/REC-SVG-20010904/DTD/svg10.dtd">
<svg version="1.0" xmlns="http://www.w3.org/2000/svg"
 width="768.000000pt" height="768.000000pt" viewBox="0 0 768.000000 768.000000"
 preserveAspectRatio="xMidYMid meet">

<g transform="translate(0.000000,768.000000) scale(0.100000,-0.100000)"
fill="#000000" stroke="none">
<path d="M2265 6739 c-338 -35 -680 -156 -975 -347 -522 -336 -877 -893 -977
-1532 -17 -107 -18 -226 -18 -1780 l0 -1665 22 -84 c72 -270 276 -485 548
-579 l80 -27 960 -3 c1040 -3 1029 -3 1166 52 104 42 171 89 269 186 98 98
144 165 187 270 53 133 53 122 53 1136 0 1069 4 1011 -85 1189 -105 211 -291
363 -521 427 -76 21 -103 22 -679 27 l-600 6 -58 27 c-117 55 -191 138 -227
256 -40 129 -22 439 35 609 98 291 348 557 628 667 153 60 202 68 487 75 304
8 322 12 398 95 78 85 77 78 77 457 l0 335 -30 59 c-35 69 -105 128 -171 144
-50 13 -448 13 -569 0z"/>
<path d="M6105 6739 c-338 -35 -680 -156 -975 -347 -522 -336 -877 -893 -977
-1532 -17 -107 -18 -226 -18 -1780 l0 -1665 22 -84 c72 -270 276 -485 548
-579 l80 -27 960 -3 c1040 -3 1029 -3 1166 52 104 42 171 89 269 186 98 98
144 165 187 270 53 133 53 122 53 1136 0 1069 4 1011 -85 1189 -105 211 -291
363 -521 427 -76 21 -103 22 -679 27 l-600 6 -58 27 c-117 55 -191 138 -227
256 -40 129 -22 439 35 609 98 291 348 557 628 667 153 60 202 68 487 75 304
8 322 12 398 95 78 85 77 78 77 457 l0 335 -30 59 c-35 69 -105 128 -171 144
-50 13 -448 13 -569 0z"/>
</g>
</svg>
