<?xml version="1.0" standalone="no"?>
<!DOCTYPE svg PUBLIC "-//W3C//DTD SVG 20010904//EN"
 "http://www.w3.org/TR/2001/REC-SVG-20010904/DTD/svg10.dtd">
<svg version="1.0" xmlns="http://www.w3.org/2000/svg"
 width="512.000000pt" height="512.000000pt" viewBox="0 0 512.000000 512.000000"
 preserveAspectRatio="xMidYMid meet">

<g transform="translate(0.000000,512.000000) scale(0.100000,-0.100000)"
fill="#000000" stroke="none">
<path d="M320 4947 c-49 -16 -133 -102 -148 -153 -17 -60 -17 -2008 0 -2068
16 -55 99 -138 154 -154 31 -9 267 -12 956 -12 1038 0 975 -5 1051 80 24 26
49 66 55 88 17 57 17 2007 0 2064 -6 22 -31 62 -55 88 -76 85 -12 80 -1057 79
-641 -1 -932 -4 -956 -12z m1895 -172 l25 -24 0 -991 0 -991 -25 -24 -24 -25
-911 0 -911 0 -24 25 -25 24 0 991 0 991 25 24 24 25 911 0 911 0 24 -25z"/>
<path d="M688 4593 c-216 -212 -289 -360 -290 -588 0 -154 40 -289 123 -412
44 -66 450 -475 524 -528 140 -100 261 -140 425 -139 240 0 399 80 619 309 78
81 86 95 81 140 -1 11 -97 116 -218 238 -198 198 -220 217 -251 217 -30 0 -48
-14 -151 -114 -97 -94 -126 -116 -170 -131 -96 -32 -197 -2 -270 81 -43 50
-62 98 -63 159 -1 89 17 120 142 248 162 165 170 134 -105 408 -199 198 -223
219 -253 219 -30 0 -48 -14 -143 -107z m397 -393 l-30 -30 -140 140 -139 139
29 31 29 31 141 -141 140 -140 -30 -30z m-273 -7 l138 -138 -24 -50 c-76 -158
-43 -335 85 -465 125 -128 309 -164 460 -91 23 12 48 21 54 21 5 0 73 -63 149
-139 l139 -139 -54 -31 c-93 -54 -180 -76 -294 -75 -108 1 -177 19 -270 70
-73 40 -511 476 -559 557 -103 174 -106 392 -6 565 17 28 34 52 38 52 4 0 69
-62 144 -137z m1033 -693 l139 -139 -29 -31 -29 -31 -138 138 c-76 76 -138
142 -138 147 0 11 40 56 49 56 4 0 69 -63 146 -140z"/>
<path d="M2880 4947 c-49 -16 -133 -102 -148 -153 -17 -60 -17 -2008 0 -2068
16 -55 99 -138 154 -154 27 -8 117 -12 258 -12 l216 0 0 -497 c-1 -554 5 -524
-67 -363 -53 121 -83 161 -144 195 -63 34 -132 37 -222 10 -102 -30 -159 -106
-142 -187 17 -75 348 -1015 364 -1033 10 -11 61 -71 115 -134 l96 -114 0 -114
c0 -108 1 -115 25 -138 l24 -25 591 0 591 0 24 25 c24 23 25 30 25 147 l0 123
80 120 80 120 0 549 c0 387 -3 560 -12 587 -33 111 -172 191 -280 161 -35 -10
-37 -9 -46 17 -34 98 -174 171 -274 143 -35 -10 -37 -9 -46 17 -14 41 -69 99
-116 124 -31 16 -59 21 -113 22 l-73 0 0 123 0 122 458 0 c528 0 523 -1 595
80 24 26 49 66 55 88 17 57 17 2007 0 2064 -6 22 -31 62 -55 88 -76 85 -12 80
-1057 79 -641 -1 -932 -4 -956 -12z m1895 -172 l25 -24 0 -991 0 -991 -25 -24
-24 -25 -456 0 -455 0 0 56 c0 87 -18 133 -75 189 -75 76 -165 95 -255 54 -95
-43 -140 -113 -148 -226 l-5 -73 -214 0 c-214 0 -214 0 -238 25 l-25 24 0 991
0 991 25 24 24 25 911 0 911 0 24 -25z m-1120 -1920 l25 -24 0 -671 0 -671 25
-24 c15 -16 36 -25 55 -25 19 0 40 9 55 25 l25 24 0 311 0 311 25 24 c15 16
36 25 55 25 19 0 40 -9 55 -25 l25 -24 0 -311 0 -311 25 -24 c32 -33 78 -33
110 0 l25 24 0 231 0 231 25 24 c32 33 78 33 110 0 l25 -24 0 -231 0 -231 25
-24 c32 -33 78 -33 110 0 24 23 25 28 25 175 0 147 1 152 25 175 15 16 36 25
55 25 19 0 40 -9 55 -25 l25 -24 0 -523 0 -523 -80 -120 -80 -120 0 -92 0 -93
-480 0 -480 0 0 68 c0 37 -4 81 -9 99 -5 17 -61 92 -124 166 l-115 134 -161
467 c-89 257 -161 474 -161 481 0 18 83 37 114 25 33 -12 33 -12 182 -333 108
-233 134 -281 158 -294 33 -17 68 -11 96 17 20 20 20 37 20 840 0 581 3 826
11 844 22 48 86 60 124 21z"/>
<path d="M3700 4464 c-234 -50 -436 -254 -485 -489 -60 -285 79 -575 335 -703
122 -61 187 -72 433 -72 208 0 208 0 232 25 16 15 25 36 25 55 0 19 -9 40 -25
55 -24 25 -25 25 -227 25 -148 0 -219 4 -261 15 -173 45 -307 178 -352 350
-65 251 94 513 350 580 162 42 340 -10 458 -134 94 -98 137 -211 137 -359 0
-75 -2 -85 -25 -107 -29 -30 -74 -32 -106 -6 -22 17 -25 30 -30 124 -4 86 -10
114 -33 160 -96 196 -361 241 -516 87 -154 -155 -109 -420 88 -517 48 -24 70
-28 137 -28 67 0 89 4 135 27 30 15 63 33 72 40 14 10 21 9 40 -9 59 -53 148
-74 225 -52 66 18 144 96 162 162 19 67 9 252 -18 337 -100 314 -428 504 -751
434z m203 -478 c103 -43 128 -177 48 -257 -112 -113 -296 -12 -267 146 18 94
128 150 219 111z"/>
<path d="M320 2387 c-49 -16 -133 -102 -148 -153 -17 -59 -17 -1849 0 -1908
16 -55 99 -138 154 -154 31 -9 267 -12 956 -12 1038 0 975 -5 1051 80 24 26
49 66 55 88 17 57 17 1847 0 1904 -6 22 -31 62 -55 88 -76 85 -12 80 -1057 79
-641 -1 -932 -4 -956 -12z m1895 -172 l25 -24 0 -911 0 -911 -25 -24 -24 -25
-911 0 -911 0 -24 25 -25 24 0 911 0 911 25 24 24 25 911 0 911 0 24 -25z"/>
<path d="M505 1815 l-25 -24 0 -511 0 -511 25 -24 24 -25 751 0 751 0 24 25
25 24 0 511 0 511 -25 24 -24 25 -751 0 -751 0 -24 -25z m1275 -139 c0 -2 -96
-89 -212 -192 -117 -104 -230 -204 -250 -222 l-37 -34 -208 184 c-113 100
-227 202 -252 225 l-46 42 503 1 c276 0 502 -2 502 -4z m-937 -275 c76 -68
137 -124 135 -126 -4 -2 -157 -137 -260 -229 l-78 -68 0 303 0 303 33 -30 c17
-17 94 -86 170 -153z m1075 -270 l-3 -149 -167 149 -167 148 167 149 167 149
3 -148 c1 -82 1 -216 0 -298z m-769 0 c62 -51 82 -61 131 -61 48 0 87 18 140
66 l39 36 162 -144 163 -143 -252 -3 c-139 -1 -365 -1 -503 0 l-251 3 158 142
c88 78 161 142 163 142 2 1 24 -16 50 -38z"/>
</g>
</svg>
