<?xml version="1.0" standalone="no"?>
<!DOCTYPE svg PUBLIC "-//W3C//DTD SVG 20010904//EN"
 "http://www.w3.org/TR/2001/REC-SVG-20010904/DTD/svg10.dtd">
<svg version="1.0" xmlns="http://www.w3.org/2000/svg"
 width="512.000000pt" height="512.000000pt" viewBox="0 0 512.000000 512.000000"
 preserveAspectRatio="xMidYMid meet">

<g transform="translate(0.000000,512.000000) scale(0.100000,-0.100000)"
fill="#000000" stroke="none">
<path d="M1510 5109 c-415 -48 -812 -255 -1082 -564 -370 -423 -509 -982 -379
-1529 40 -167 148 -418 193 -450 52 -37 130 -9 149 53 11 37 9 44 -44 158 -59
125 -95 237 -124 381 -25 125 -24 393 1 527 37 199 118 400 229 565 64 97 82
118 180 219 215 219 466 356 777 422 151 33 428 33 580 0 606 -129 1052 -575
1181 -1181 19 -87 23 -136 23 -290 0 -154 -4 -203 -23 -290 -31 -148 -74 -267
-142 -399 -37 -71 -59 -127 -59 -147 0 -18 31 -149 70 -291 54 -202 67 -261
57 -270 -9 -10 -68 3 -270 57 -142 39 -273 70 -291 70 -20 0 -76 -22 -147 -59
-132 -68 -251 -111 -399 -142 -151 -33 -429 -33 -577 -1 -135 29 -262 72 -375
127 -50 25 -100 45 -109 45 -75 0 -126 -97 -83 -158 32 -45 283 -153 450 -193
400 -95 803 -48 1174 136 l85 42 255 -69 c243 -66 258 -69 309 -59 70 14 123
49 155 104 46 79 44 105 -32 387 l-69 255 40 80 c198 398 239 835 117 1252
-230 789 -1006 1305 -1820 1212z"/>
<path d="M1286 4104 c-177 -43 -335 -200 -375 -374 -16 -68 -13 -199 5 -261
35 -117 56 -144 333 -422 310 -313 322 -322 451 -322 129 0 141 9 451 322 277
278 298 305 333 422 18 62 21 193 5 261 -18 80 -71 172 -134 235 -162 162
-393 199 -596 96 l-57 -28 -66 32 c-113 55 -230 68 -350 39z m248 -212 c26
-12 64 -35 82 -52 60 -52 108 -52 168 0 60 53 121 75 211 75 97 -1 152 -24
220 -93 57 -58 85 -130 85 -220 0 -120 -22 -151 -304 -432 l-246 -245 -50 0
-50 0 -246 245 c-282 281 -304 312 -304 432 0 142 79 255 210 302 59 21 160
16 224 -12z"/>
<path d="M4675 2647 c-22 -8 -56 -22 -75 -31 -19 -10 -466 -448 -992 -974
l-958 -957 -81 -242 -81 -243 -1203 0 c-912 0 -1210 -3 -1230 -12 -29 -13 -55
-55 -55 -88 0 -33 26 -75 55 -88 20 -9 327 -12 1273 -12 l1247 0 285 95 285
95 961 963 c1082 1083 1008 999 1009 1157 0 71 -4 94 -26 141 -58 124 -169
199 -302 205 -42 2 -88 -2 -112 -9z m165 -207 c45 -23 80 -80 80 -130 0 -51
-34 -100 -147 -213 l-108 -107 -108 108 -107 107 107 107 c60 58 124 116 143
127 44 26 90 27 140 1z m-420 -485 l105 -105 -645 -645 -645 -645 -107 107
-108 108 642 642 c354 354 645 643 648 643 3 0 52 -47 110 -105z m-1358 -1566
c-18 -18 -75 -42 -181 -78 -85 -28 -156 -49 -158 -48 -1 2 20 73 48 158 34
102 60 163 77 182 l26 27 108 -107 108 -108 -28 -26z"/>
<path d="M521 2377 c-57 -33 -68 -112 -22 -158 69 -68 187 -5 166 89 -13 61
-92 98 -144 69z"/>
</g>
</svg>
