<?xml version="1.0" standalone="no"?>
<!DOCTYPE svg PUBLIC "-//W3C//DTD SVG 20010904//EN"
 "http://www.w3.org/TR/2001/REC-SVG-20010904/DTD/svg10.dtd">
<svg version="1.0" xmlns="http://www.w3.org/2000/svg"
 width="512.000000pt" height="512.000000pt" viewBox="0 0 512.000000 512.000000"
 preserveAspectRatio="xMidYMid meet">

<g transform="translate(0.000000,512.000000) scale(0.100000,-0.100000)"
fill="#000000" stroke="none">
<path d="M2440 4954 c-14 -2 -56 -9 -95 -15 -154 -25 -334 -100 -473 -199 -85
-60 -194 -161 -237 -219 l-30 -41 -379 0 c-267 0 -391 -4 -420 -12 -55 -16
-138 -99 -154 -154 -9 -31 -12 -313 -12 -1172 l0 -1130 -215 -791 c-118 -434
-215 -805 -215 -824 0 -90 73 -193 159 -222 39 -13 288 -15 2191 -15 1903 0
2152 2 2191 15 86 29 159 132 159 222 0 18 -97 389 -215 824 l-215 790 0 1131
c0 858 -3 1141 -12 1172 -16 55 -99 138 -154 154 -29 8 -153 12 -420 12 l-379
0 -30 41 c-16 23 -60 70 -97 104 -167 158 -366 263 -590 311 -70 15 -307 27
-358 18z m285 -169 c329 -53 613 -261 760 -555 42 -86 72 -168 97 -270 17 -71
17 -316 0 -395 -70 -325 -269 -588 -552 -730 -165 -82 -283 -109 -475 -110
-187 0 -303 28 -475 116 -288 147 -492 429 -545 754 -54 330 55 665 291 897
247 243 568 347 899 293z m-1260 -537 c-34 -75 -64 -169 -86 -273 -21 -92 -18
-351 5 -455 136 -629 726 -1041 1356 -946 494 75 888 449 996 946 15 65 19
123 18 250 -1 149 -4 176 -31 281 -17 63 -47 150 -66 192 l-36 77 325 0 325 0
24 -25 25 -24 0 -1096 0 -1095 -1760 0 -1760 0 0 1095 0 1096 25 24 24 25 325
0 325 0 -34 -72z m2879 -2345 c39 -130 406 -1497 406 -1513 0 -11 -11 -32 -25
-45 l-24 -25 -2141 0 -2141 0 -24 25 c-14 13 -25 34 -25 45 0 16 367 1383 406
1513 5 16 99 17 1784 17 1685 0 1779 -1 1784 -17z"/>
<path d="M2121 4465 c-210 -59 -361 -254 -361 -465 1 -287 242 -612 654 -882
76 -49 130 -78 147 -78 17 0 70 28 146 78 463 306 701 667 643 973 -16 84 -63
173 -126 240 -162 169 -418 196 -614 64 l-50 -34 -50 34 c-111 75 -270 103
-389 70z m251 -177 c30 -14 77 -48 106 -77 69 -69 95 -69 164 0 76 76 143 104
243 103 126 -1 215 -54 274 -163 119 -224 -39 -528 -424 -816 -60 -45 -125
-90 -142 -101 -32 -18 -34 -18 -65 0 -18 11 -83 57 -144 102 -315 235 -482
488 -460 696 14 134 109 245 241 279 53 14 149 3 207 -23z"/>
<path d="M2160 2320 l0 -80 400 0 400 0 0 80 0 80 -400 0 -400 0 0 -80z"/>
<path d="M960 1680 l0 -80 160 0 160 0 0 80 0 80 -160 0 -160 0 0 -80z"/>
<path d="M1440 1680 l0 -80 160 0 160 0 0 80 0 80 -160 0 -160 0 0 -80z"/>
<path d="M1920 1680 l0 -80 160 0 160 0 0 80 0 80 -160 0 -160 0 0 -80z"/>
<path d="M2400 1680 l0 -80 160 0 160 0 0 80 0 80 -160 0 -160 0 0 -80z"/>
<path d="M2880 1680 l0 -80 160 0 160 0 0 80 0 80 -160 0 -160 0 0 -80z"/>
<path d="M3360 1680 l0 -80 160 0 160 0 0 80 0 80 -160 0 -160 0 0 -80z"/>
<path d="M3840 1680 l0 -80 160 0 160 0 0 80 0 80 -160 0 -160 0 0 -80z"/>
<path d="M960 1360 l0 -80 160 0 160 0 0 80 0 80 -160 0 -160 0 0 -80z"/>
<path d="M1440 1360 l0 -80 160 0 160 0 0 80 0 80 -160 0 -160 0 0 -80z"/>
<path d="M1920 1360 l0 -80 160 0 160 0 0 80 0 80 -160 0 -160 0 0 -80z"/>
<path d="M2400 1360 l0 -80 160 0 160 0 0 80 0 80 -160 0 -160 0 0 -80z"/>
<path d="M2880 1360 l0 -80 160 0 160 0 0 80 0 80 -160 0 -160 0 0 -80z"/>
<path d="M3360 1360 l0 -80 160 0 160 0 0 80 0 80 -160 0 -160 0 0 -80z"/>
<path d="M3840 1360 l0 -80 160 0 160 0 0 80 0 80 -160 0 -160 0 0 -80z"/>
<path d="M1871 942 c-17 -13 -33 -59 -66 -192 -25 -96 -45 -185 -45 -198 0
-13 11 -34 25 -47 l24 -25 751 0 751 0 24 25 c14 13 25 34 25 47 0 13 -20 102
-45 198 -33 133 -49 179 -66 192 -20 17 -68 18 -689 18 -621 0 -669 -1 -689
-18z m1287 -222 l20 -80 -618 0 -618 0 20 80 20 80 578 0 578 0 20 -80z"/>
</g>
</svg>
