<?xml version="1.0" standalone="no"?>
<!DOCTYPE svg PUBLIC "-//W3C//DTD SVG 20010904//EN"
 "http://www.w3.org/TR/2001/REC-SVG-20010904/DTD/svg10.dtd">
<svg version="1.0" xmlns="http://www.w3.org/2000/svg"
 width="920.000000pt" height="920.000000pt" viewBox="0 0 920.000000 920.000000"
 preserveAspectRatio="xMidYMid meet">

<g transform="translate(0.000000,920.000000) scale(0.100000,-0.100000)"
fill="#000000" stroke="none">
<path d="M4360 9194 c-1038 -61 -1997 -450 -2779 -1127 -789 -685 -1340 -1660
-1510 -2674 -53 -316 -65 -457 -65 -793 0 -336 12 -477 65 -793 170 -1013 707
-1966 1500 -2663 606 -533 1387 -917 2151 -1058 888 -164 1761 -83 2568 237
1144 455 2074 1365 2550 2497 313 745 425 1578 319 2372 -70 530 -212 995
-445 1459 -446 892 -1172 1619 -2061 2063 -506 252 -1010 399 -1590 461 -135
15 -573 26 -703 19z m648 -630 c316 -32 555 -85 867 -189 262 -87 463 -178
725 -328 707 -404 1304 -1068 1641 -1824 365 -819 444 -1745 222 -2608 -363
-1418 -1477 -2525 -2904 -2885 -513 -130 -1106 -149 -1654 -55 -710 122 -1389
451 -1945 941 -671 591 -1131 1410 -1285 2284 -43 247 -58 424 -58 695 -1 278
9 402 54 675 237 1436 1277 2648 2671 3111 349 116 707 183 1083 203 121 6
434 -4 583 -20z"/>
<path d="M3324 7850 c-33 -11 -100 -43 -148 -72 -82 -50 -296 -207 -295 -218
0 -3 64 -47 142 -97 332 -217 615 -483 817 -771 77 -110 180 -291 218 -384 15
-37 30 -68 34 -68 4 0 73 64 154 143 242 234 289 313 266 449 -16 89 -41 155
-105 266 -189 330 -502 624 -790 740 -86 35 -209 40 -293 12z"/>
<path d="M2585 7348 c-73 -40 -142 -139 -246 -352 -159 -328 -216 -574 -175
-766 68 -318 453 -1193 789 -1790 396 -706 859 -1351 1407 -1960 429 -477 841
-837 1056 -924 111 -45 156 -50 289 -32 159 22 615 102 690 121 114 30 175
107 175 221 0 266 -147 709 -336 1015 -60 96 -202 285 -296 390 -90 103 -97
105 -292 80 -176 -23 -249 -18 -334 19 -237 105 -634 553 -1080 1218 -236 352
-382 614 -444 795 -26 77 -32 111 -35 207 -5 124 -1 140 59 305 29 82 32 100
32 200 0 87 -5 123 -23 175 -94 273 -597 816 -936 1009 -127 73 -244 100 -300
69z"/>
<path d="M6335 3632 c-106 -37 -315 -130 -315 -140 0 -2 39 -46 88 -96 350
-367 579 -844 667 -1391 10 -60 19 -112 21 -114 5 -6 142 68 234 127 98 63
214 171 241 224 35 69 52 165 45 263 -19 310 -249 793 -483 1016 -121 114
-179 143 -298 147 -83 3 -99 0 -200 -36z"/>
</g>
</svg>
